# xmcd
#
# Track frame offsets: 
#        183
#        23683
#        41648
#        56500
#        75470
#        100245
#        110038
#        138643
#        158745
#        180698
#        219598
#
# Disc length: 3293 seconds
#
# Revision: 0
# Processed by: cddbd v1.5.2PL0 Copyright (c) Steve Scherf et al.
# Submitted via: ExactAudioCopy v0.99pb5
#
DISCID=910cdb0b
DTITLE=Andrzej Rosiewicz - ZLote Przeboje ( volume one )
DYEAR=1900
DGENRE=
TTITLE0=Ja Widzê, Ja Chodzê
TTITLE1=W Lubartowie
TTITLE2=¯ycie To Interes
TTITLE3=Radarowcy
TTITLE4=Propaganda
TTITLE5=Piosenka o Prawdzie
TTITLE6=Wincenty Kalemba
TTITLE7=BiaLy Bal
TTITLE8=Pytasz Mnie
TTITLE9=Wieje Wiosna ze Wschodu
TTITLE10=Najwiecej Witaminy
EXTD=
EXTT0=
EXTT1=
EXTT2=
EXTT3=
EXTT4=
EXTT5=
EXTT6=
EXTT7=
EXTT8=
EXTT9=
EXTT10=
PLAYORDER=
